<mxfile host="app.diagrams.net" modified="2024-06-20T22:26:01.206Z" agent="Mozilla/5.0 (Windows NT 10.0; Win64; x64) AppleWebKit/537.36 (KHTML, like Gecko) Chrome/126.0.0.0 Safari/537.36" etag="hpzayMddGGCaE9jSVmT1" version="24.5.5" type="github">
  <diagram name="Page-1" id="xUjrqKP3Alw-lbiAV3t9">
    <mxGraphModel dx="934" dy="1625" grid="1" gridSize="10" guides="1" tooltips="1" connect="1" arrows="1" fold="1" page="1" pageScale="1" pageWidth="850" pageHeight="1100" math="0" shadow="0">
      <root>
        <mxCell id="0" />
        <mxCell id="1" parent="0" />
        <mxCell id="UZAarbRj5RcRsx9aD97j-1" value="" style="ellipse;whiteSpace=wrap;html=1;" vertex="1" parent="1">
          <mxGeometry x="360" y="-430" width="120" height="60" as="geometry" />
        </mxCell>
        <mxCell id="UZAarbRj5RcRsx9aD97j-6" value="" style="endArrow=classic;html=1;rounded=0;exitX=0.5;exitY=1;exitDx=0;exitDy=0;" edge="1" parent="1" source="UZAarbRj5RcRsx9aD97j-1">
          <mxGeometry width="50" height="50" relative="1" as="geometry">
            <mxPoint x="419.5" y="-360" as="sourcePoint" />
            <mxPoint x="420" y="-290" as="targetPoint" />
          </mxGeometry>
        </mxCell>
        <mxCell id="UZAarbRj5RcRsx9aD97j-7" value="HOMESCREEN" style="text;strokeColor=none;align=center;fillColor=none;html=1;verticalAlign=middle;whiteSpace=wrap;rounded=0;" vertex="1" parent="1">
          <mxGeometry x="370" y="-415" width="100" height="30" as="geometry" />
        </mxCell>
        <mxCell id="UZAarbRj5RcRsx9aD97j-14" value="" style="line;strokeWidth=2;html=1;" vertex="1" parent="1">
          <mxGeometry x="150" y="-340" width="460" height="10" as="geometry" />
        </mxCell>
        <mxCell id="UZAarbRj5RcRsx9aD97j-19" value="" style="endArrow=classic;html=1;rounded=0;exitX=0;exitY=0.5;exitDx=0;exitDy=0;exitPerimeter=0;" edge="1" parent="1" source="UZAarbRj5RcRsx9aD97j-14">
          <mxGeometry width="50" height="50" relative="1" as="geometry">
            <mxPoint x="150" y="-190" as="sourcePoint" />
            <mxPoint x="150" y="-290" as="targetPoint" />
          </mxGeometry>
        </mxCell>
        <mxCell id="UZAarbRj5RcRsx9aD97j-23" value="" style="endArrow=classic;html=1;rounded=0;exitX=0.25;exitY=0.5;exitDx=0;exitDy=0;exitPerimeter=0;" edge="1" parent="1" source="UZAarbRj5RcRsx9aD97j-14">
          <mxGeometry width="50" height="50" relative="1" as="geometry">
            <mxPoint x="280" y="-190" as="sourcePoint" />
            <mxPoint x="265" y="-290" as="targetPoint" />
            <Array as="points">
              <mxPoint x="265" y="-300" />
            </Array>
          </mxGeometry>
        </mxCell>
        <mxCell id="UZAarbRj5RcRsx9aD97j-24" value="" style="endArrow=classic;html=1;rounded=0;exitX=1;exitY=0.5;exitDx=0;exitDy=0;exitPerimeter=0;" edge="1" parent="1" source="UZAarbRj5RcRsx9aD97j-14" target="UZAarbRj5RcRsx9aD97j-26">
          <mxGeometry width="50" height="50" relative="1" as="geometry">
            <mxPoint x="610" y="-320" as="sourcePoint" />
            <mxPoint x="610" y="-295" as="targetPoint" />
          </mxGeometry>
        </mxCell>
        <mxCell id="UZAarbRj5RcRsx9aD97j-25" value="" style="rounded=1;whiteSpace=wrap;html=1;" vertex="1" parent="1">
          <mxGeometry x="80" y="-290" width="120" height="50" as="geometry" />
        </mxCell>
        <mxCell id="UZAarbRj5RcRsx9aD97j-26" value="" style="rounded=1;whiteSpace=wrap;html=1;" vertex="1" parent="1">
          <mxGeometry x="550" y="-290" width="120" height="50" as="geometry" />
        </mxCell>
        <mxCell id="UZAarbRj5RcRsx9aD97j-27" value="" style="rounded=1;whiteSpace=wrap;html=1;" vertex="1" parent="1">
          <mxGeometry x="360" y="-290" width="120" height="50" as="geometry" />
        </mxCell>
        <mxCell id="UZAarbRj5RcRsx9aD97j-28" value="" style="rounded=1;whiteSpace=wrap;html=1;" vertex="1" parent="1">
          <mxGeometry x="220" y="-290" width="120" height="50" as="geometry" />
        </mxCell>
        <mxCell id="UZAarbRj5RcRsx9aD97j-29" value="Melora Icon" style="text;strokeColor=none;align=center;fillColor=none;html=1;verticalAlign=middle;whiteSpace=wrap;rounded=0;" vertex="1" parent="1">
          <mxGeometry x="370" y="-280" width="100" height="30" as="geometry" />
        </mxCell>
        <mxCell id="UZAarbRj5RcRsx9aD97j-31" value="Concert Icon" style="text;strokeColor=none;align=center;fillColor=none;html=1;verticalAlign=middle;whiteSpace=wrap;rounded=0;" vertex="1" parent="1">
          <mxGeometry x="230" y="-280" width="100" height="30" as="geometry" />
        </mxCell>
        <mxCell id="UZAarbRj5RcRsx9aD97j-32" value="Library Icon" style="text;strokeColor=none;align=center;fillColor=none;html=1;verticalAlign=middle;whiteSpace=wrap;rounded=0;" vertex="1" parent="1">
          <mxGeometry x="90" y="-282.5" width="100" height="35" as="geometry" />
        </mxCell>
        <mxCell id="UZAarbRj5RcRsx9aD97j-34" value="Search Icon" style="text;strokeColor=none;align=center;fillColor=none;html=1;verticalAlign=middle;whiteSpace=wrap;rounded=0;" vertex="1" parent="1">
          <mxGeometry x="580" y="-280" width="60" height="30" as="geometry" />
        </mxCell>
        <mxCell id="UZAarbRj5RcRsx9aD97j-35" value="" style="endArrow=classic;html=1;rounded=0;exitX=0.5;exitY=1;exitDx=0;exitDy=0;" edge="1" parent="1" source="UZAarbRj5RcRsx9aD97j-27">
          <mxGeometry width="50" height="50" relative="1" as="geometry">
            <mxPoint x="380" y="-110" as="sourcePoint" />
            <mxPoint x="420" y="-200" as="targetPoint" />
          </mxGeometry>
        </mxCell>
        <mxCell id="UZAarbRj5RcRsx9aD97j-36" value="" style="rounded=1;whiteSpace=wrap;html=1;" vertex="1" parent="1">
          <mxGeometry x="360" y="-200" width="120" height="50" as="geometry" />
        </mxCell>
        <mxCell id="UZAarbRj5RcRsx9aD97j-37" value="Search Page" style="text;strokeColor=none;align=center;fillColor=none;html=1;verticalAlign=middle;whiteSpace=wrap;rounded=0;" vertex="1" parent="1">
          <mxGeometry x="370" y="-190" width="100" height="30" as="geometry" />
        </mxCell>
        <mxCell id="UZAarbRj5RcRsx9aD97j-39" value="" style="endArrow=classic;html=1;rounded=0;exitX=0.5;exitY=1;exitDx=0;exitDy=0;" edge="1" parent="1" source="UZAarbRj5RcRsx9aD97j-36">
          <mxGeometry width="50" height="50" relative="1" as="geometry">
            <mxPoint x="410" y="-20" as="sourcePoint" />
            <mxPoint x="420" y="-120" as="targetPoint" />
          </mxGeometry>
        </mxCell>
        <mxCell id="UZAarbRj5RcRsx9aD97j-42" value="Is Result Found?" style="rhombus;whiteSpace=wrap;html=1;" vertex="1" parent="1">
          <mxGeometry x="360" y="-120" width="120" height="80" as="geometry" />
        </mxCell>
        <mxCell id="UZAarbRj5RcRsx9aD97j-43" value="" style="endArrow=classic;html=1;rounded=0;exitX=1;exitY=0.5;exitDx=0;exitDy=0;" edge="1" parent="1" source="UZAarbRj5RcRsx9aD97j-42">
          <mxGeometry width="50" height="50" relative="1" as="geometry">
            <mxPoint x="600" y="-80" as="sourcePoint" />
            <mxPoint x="550" y="-80" as="targetPoint" />
            <Array as="points" />
          </mxGeometry>
        </mxCell>
        <mxCell id="UZAarbRj5RcRsx9aD97j-44" value="NO" style="text;html=1;align=center;verticalAlign=middle;resizable=0;points=[];autosize=1;strokeColor=none;fillColor=none;" vertex="1" parent="1">
          <mxGeometry x="490" y="-112" width="40" height="30" as="geometry" />
        </mxCell>
        <mxCell id="UZAarbRj5RcRsx9aD97j-45" value="" style="endArrow=classic;html=1;rounded=0;exitX=-0.064;exitY=0.491;exitDx=0;exitDy=0;exitPerimeter=0;" edge="1" parent="1">
          <mxGeometry width="50" height="50" relative="1" as="geometry">
            <mxPoint x="359.99999999999994" y="-80.72000000000003" as="sourcePoint" />
            <mxPoint x="290" y="-81" as="targetPoint" />
          </mxGeometry>
        </mxCell>
        <mxCell id="UZAarbRj5RcRsx9aD97j-46" value="YES" style="text;html=1;align=center;verticalAlign=middle;resizable=0;points=[];autosize=1;strokeColor=none;fillColor=none;" vertex="1" parent="1">
          <mxGeometry x="305" y="-112" width="50" height="30" as="geometry" />
        </mxCell>
        <mxCell id="UZAarbRj5RcRsx9aD97j-47" value="" style="rounded=1;whiteSpace=wrap;html=1;" vertex="1" parent="1">
          <mxGeometry x="550" y="-100" width="140" height="40" as="geometry" />
        </mxCell>
        <mxCell id="UZAarbRj5RcRsx9aD97j-48" value="" style="rounded=1;whiteSpace=wrap;html=1;" vertex="1" parent="1">
          <mxGeometry x="140" y="-100" width="150" height="40" as="geometry" />
        </mxCell>
      </root>
    </mxGraphModel>
  </diagram>
</mxfile>
